<?xml version="1.0" encoding="UTF-8"?>
<svg version="1.1" xmlns="http://www.w3.org/2000/svg" width="231" height="232">
<path d="M0 0 C8.8350424 3.59126908 17.82069949 3.24813949 27.25 3 C28.39082031 2.97486328 28.39082031 2.97486328 29.5546875 2.94921875 C33.94862995 2.65905274 37.46965893 1.53692139 41.56005859 -0.11474609 C47.55391627 -2.46371071 51.74263897 -3.52819821 58 -1.0625 C60.09656359 -0.06912213 62.18080965 0.95079565 64.25 2 C66.04952337 2.74068077 67.86203658 3.45077774 69.6875 4.125 C70.574375 4.45757813 71.46125 4.79015625 72.375 5.1328125 C75.63221026 6.11528625 78.82122988 6.52015886 82.1875 7 C90.91521148 8.78194768 96.16561299 13.94077153 101.25 21 C103.33680353 24.56746236 104.92776173 28.19878472 106.44140625 32.03955078 C108.1149809 36.09716082 110.05087561 40.03827763 111.9375 44 C112.31865967 44.813479 112.69981934 45.62695801 113.0925293 46.46508789 C114.97008771 50.44759928 116.94634415 54.24307366 119.25 58 C120.2650089 59.99242489 121.26873444 61.99074195 122.25 64 C114.34125016 72.31225748 106.41499093 77.99359543 94.58203125 79.29296875 C92.375 79.3125 92.375 79.3125 89.25 79 C88.693125 77.865625 88.13625 76.73125 87.5625 75.5625 C86.79240559 74.04129237 86.02151577 72.52048725 85.25 71 C84.65445313 69.77990234 84.65445313 69.77990234 84.046875 68.53515625 C81.64325582 63.66690923 81.64325582 63.66690923 77.4375 60.4375 C76.715625 60.293125 75.99375 60.14875 75.25 60 C75.62904208 63.29075996 75.62904208 63.29075996 77.25 66 C77.87696528 72.66753465 77.16427477 78.91930014 75.75488281 85.43920898 C74.11559711 93.61163654 73.84340142 101.58074085 73.921875 109.91015625 C73.92494852 111.37592878 73.92681249 112.84170429 73.92755127 114.30747986 C73.93210267 117.35036769 73.94632306 120.39298323 73.96875 123.43579102 C73.99705264 127.29014224 74.00797154 131.1442815 74.0124321 134.99872684 C74.01764336 138.74006254 74.03211119 142.48134828 74.046875 146.22265625 C74.04875572 146.91140398 74.05063644 147.60015171 74.05257416 148.30977058 C73.88511087 166.38189305 73.88511087 166.38189305 77.25 184 C77.80406189 186.0383378 78.34637558 188.07991766 78.875 190.125 C79.13539063 191.11757812 79.39578125 192.11015625 79.6640625 193.1328125 C80.21937605 195.85014678 80.36132024 198.23723395 80.25 201 C79.28320312 201.09796875 78.31640625 201.1959375 77.3203125 201.296875 C70.31766119 202.1011399 64.13511031 202.96208427 57.69140625 206 C43.27287718 211.90582951 24.316726 209.52704045 9.25 207 C8.92 206.67 8.59 206.34 8.25 206 C2.25803843 205.69271992 -3.69323775 205.77722957 -9.625 206.6875 C-17.38191711 207.59183681 -25.3530594 205.45586284 -32.67578125 203.03125 C-35.1744142 200.5843778 -35.10747149 199.82302337 -35.2734375 196.421875 C-35.250762 194.5307386 -35.19965753 192.63979823 -35.125 190.75 C-35.10429443 189.76668701 -35.08358887 188.78337402 -35.06225586 187.77026367 C-34.98994588 184.84469279 -34.87861568 181.92359203 -34.75 179 C-34.71567871 178.19062988 -34.68135742 177.38125977 -34.64599609 176.54736328 C-34.11745744 165.10237233 -34.11745744 165.10237233 -32.75 161 C-32.65234308 158.01022406 -32.61009347 155.04445063 -32.6171875 152.0546875 C-32.61623077 151.17023956 -32.61527405 150.28579163 -32.61428833 149.37454224 C-32.61360755 147.50001962 -32.61545475 145.62549465 -32.61962891 143.75097656 C-32.62494053 140.90684576 -32.61970028 138.06287564 -32.61328125 135.21875 C-32.61394279 133.39322882 -32.61522553 131.56770774 -32.6171875 129.7421875 C-32.61516327 128.90122528 -32.61313904 128.06026306 -32.61105347 127.19381714 C-32.62947971 122.45603628 -32.93651725 117.8590687 -33.51196289 113.15756226 C-33.88531789 109.77348215 -33.98181651 106.39387264 -34.06640625 102.9921875 C-34.08718735 102.26363556 -34.10796844 101.53508362 -34.12937927 100.78445435 C-34.17225667 99.253487 -34.21334036 97.72246844 -34.25268555 96.19140625 C-34.31183129 93.9008968 -34.37711266 91.61062639 -34.44335938 89.3203125 C-34.64547737 82.09218352 -34.79784676 74.86376838 -34.83984375 67.6328125 C-34.84749756 66.4483252 -34.85515137 65.26383789 -34.86303711 64.04345703 C-34.76827088 61.49193265 -34.50532158 59.42225105 -33.75 57 C-35.4 57 -37.05 57 -38.75 57 C-39.183125 58.36125 -39.183125 58.36125 -39.625 59.75 C-40.75 63 -40.75 63 -41.75 64.875 C-42.75013192 67.00028033 -43.2307048 68.9034125 -43.75 71.1875 C-44.08 72.445625 -44.41 73.70375 -44.75 75 C-50.00062736 77.62531368 -58.43061851 76.52026469 -64.0625 75.25 C-70.69507897 73.00166815 -75.73713045 71.01930432 -79.75 65 C-78.05598214 60.40452601 -75.8040842 56.18400797 -73.5 51.875 C-70.65578003 46.54388753 -67.83818899 41.20413262 -65.13021851 35.80215454 C-63.91580743 33.3802336 -62.6914544 30.96338591 -61.46716309 28.54644775 C-60.58103094 26.78679808 -59.70881413 25.02016283 -58.83691406 23.25341797 C-51.55808368 8.92466445 -51.55808368 8.92466445 -44.125 5.94921875 C-43.34125 5.86285156 -42.5575 5.77648438 -41.75 5.6875 C-37.58771427 5.16036842 -33.77909096 4.1898275 -29.75 3 C-25.92677472 1.99098384 -22.10067435 0.99368421 -18.2734375 0 C-14.84163784 -0.88232914 -14.84163784 -0.88232914 -12.1015625 -2.1875 C-7.67757127 -3.71605511 -4.08509808 -1.81559915 0 0 Z " fill="#FEFEFE" transform="translate(90.75,15)"/>
<path d="M0 0 C2.03125 0.3046875 2.03125 0.3046875 4.5 0.875 C5.72203125 1.14957031 5.72203125 1.14957031 6.96875 1.4296875 C9 2 9 2 10 3 C21.98916218 4.31268199 33.3596509 4.53868987 44.90625 0.62109375 C47 0 47 0 50 0 C49.75 1.875 49.75 1.875 49 4 C46.14564297 5.78238739 43.70061083 6.30112256 40.375 6.5625 C37.06333997 6.81884544 37.06333997 6.81884544 34 8 C10.15174058 9.22178275 10.15174058 9.22178275 0.8125 2.8125 C0.214375 2.214375 -0.38375 1.61625 -1 1 C-0.67 0.67 -0.34 0.34 0 0 Z " fill="#FDFDFD" transform="translate(87,7)"/>
<path d="M0 0 C-0.89324596 5.45475534 -4.71955472 7.88998897 -9 11 C-16.66931477 15.86788451 -22.91064524 17.96619125 -32 17 C-28.87865995 14.91910663 -26.60467526 14.30216407 -23 13.375 C-15.28856817 11.08917289 -8.90862025 7.0631471 -3.3203125 1.25390625 C-2 0 -2 0 0 0 Z " fill="#FDFDFD" transform="translate(216,82)"/>
<path d="M0 0 C2.51176645 0.96195311 4.91927067 1.95716403 7.296875 3.21875 C16.24150304 7.89046656 25.98639137 9 36 9 C36 9.66 36 10.32 36 11 C24.21254531 12.6839221 14.07863001 11.41584135 3.90234375 4.59375 C2.25 3.25 2.25 3.25 0 1 C0 0.67 0 0.34 0 0 Z " fill="#FDFDFD" transform="translate(9,85)"/>
</svg>
