<?xml version="1.0" encoding="UTF-8"?>
<svg version="1.1" xmlns="http://www.w3.org/2000/svg" width="231" height="232">
<path d="M0 0 C1.32837891 0.30067383 1.32837891 0.30067383 2.68359375 0.60742188 C3.63105469 0.83365234 4.57851562 1.05988281 5.5546875 1.29296875 C6.52277344 1.50888672 7.49085938 1.72480469 8.48828125 1.94726562 C11.55940741 2.63836859 14.61932132 3.3682862 17.6796875 4.10546875 C18.71222656 4.34072266 19.74476563 4.57597656 20.80859375 4.81835938 C28.02955416 6.57070709 34.21197268 8.76024699 39.41015625 14.25390625 C40.80594986 16.74061022 41.84502279 19.25542288 42.8671875 21.91796875 C44.46023786 25.86492935 46.1474677 29.45227626 48.4296875 33.04296875 C52.62676559 39.73002323 55.52549066 47.02445778 58.5546875 54.29296875 C59.15023437 55.64455078 59.15023437 55.64455078 59.7578125 57.0234375 C60.5546875 59.29296875 60.5546875 59.29296875 60.5546875 63.29296875 C59.55050781 63.37933594 58.54632813 63.46570313 57.51171875 63.5546875 C48.15340084 64.47453691 40.22514537 66.47747812 31.5546875 70.29296875 C29.8902223 70.96511295 28.22428491 71.63367617 26.5546875 72.29296875 C24.68685704 66.80621679 24.3188479 62.07103899 24.5546875 56.29296875 C23.2346875 55.63296875 21.9146875 54.97296875 20.5546875 54.29296875 C16.83934646 68.24976651 16.81573054 82.37366126 16.4296875 96.73046875 C16.32077444 100.37954024 16.20827223 104.02848438 16.0947113 107.67741394 C16.02178155 110.0233194 15.95051394 112.36927719 15.8809967 114.71528625 C15.65170624 122.18747571 15.28315567 129.63085153 14.7121582 137.08447266 C14.41287953 143.18233359 15.00573242 149.2236804 15.5546875 155.29296875 C17.74269797 179.74010939 17.74269797 179.74010939 17.8671875 191.66796875 C17.89341187 192.91549927 17.89341187 192.91549927 17.92016602 194.18823242 C17.91480092 199.84244836 17.91480092 199.84244836 16.21948242 201.96337891 C9.9429897 206.97610502 -2.80172225 207.76094366 -10.4453125 207.29296875 C-11.06148437 207.12796875 -11.67765625 206.96296875 -12.3125 206.79296875 C-17.85918036 205.49264808 -24.02182977 205.7776591 -29.5078125 207.23046875 C-36.30100969 208.95320401 -43.36322127 208.95130982 -50.33447266 209.20507812 C-52.10621372 209.27884944 -53.87599457 209.39778062 -55.64453125 209.52734375 C-64.33657135 209.96376417 -72.08597968 207.42957213 -80.30664062 204.92431641 C-85.96263553 203.25463572 -91.59511759 202.02424311 -97.4453125 201.29296875 C-98.00207075 194.30255966 -96.9423533 188.88029296 -94.41796875 182.34765625 C-91.90422214 174.45307855 -92.22577429 166.03962951 -92.09375 157.8359375 C-92.07059723 156.53836014 -92.04744446 155.24078278 -92.02359009 153.90388489 C-91.97533697 151.15967807 -91.93042003 148.41544081 -91.88769531 145.67114258 C-91.84417937 142.8969406 -91.79570174 140.12290396 -91.7421875 137.34887695 C-91.34226371 118.34306297 -91.34226371 118.34306297 -91.796875 99.34375 C-91.84526016 98.26458565 -91.84526016 98.26458565 -91.8946228 97.16362 C-92.18956766 92.31431093 -93.21244577 87.96662112 -94.4453125 83.29296875 C-94.71814266 80.77829836 -94.9281091 78.25589578 -95.0703125 75.73046875 C-95.14507812 74.49167969 -95.21984375 73.25289063 -95.296875 71.9765625 C-95.3975496 69.47824292 -95.43722996 66.97686255 -95.421875 64.4765625 C-95.44500703 61.33446197 -95.539448 59.7705926 -97.4453125 57.29296875 C-99.48459477 56.67364349 -99.48459477 56.67364349 -101.4453125 56.29296875 C-101.31511719 56.88722656 -101.18492188 57.48148438 -101.05078125 58.09375 C-99.78107521 65.72385267 -101.77735444 70.61703125 -105.4453125 77.29296875 C-108.67416823 75.78317973 -111.50297654 73.92331082 -114.4453125 71.91796875 C-122.11064209 66.99904067 -130.37066647 64.11793657 -139.4453125 63.29296875 C-138.10681179 59.76362019 -136.54147754 56.52081129 -134.6953125 53.23046875 C-130.63939733 45.86320255 -126.77421273 38.44317725 -123.46484375 30.70703125 C-123.1198584 29.90595947 -122.77487305 29.1048877 -122.41943359 28.27954102 C-121.74342493 26.69873791 -121.07785201 25.11341894 -120.42431641 23.52319336 C-118.42336978 18.84216917 -116.34151611 15.71574203 -112.4453125 12.29296875 C-111.7853125 11.63296875 -111.1253125 10.97296875 -110.4453125 10.29296875 C-108.54101562 9.67041016 -108.54101562 9.67041016 -106.2265625 9.14453125 C-105.38109863 8.94553223 -104.53563477 8.7465332 -103.66455078 8.54150391 C-102.76720215 8.3357373 -101.86985352 8.1299707 -100.9453125 7.91796875 C-95.30678755 6.58555362 -89.88680858 5.27358547 -84.5703125 2.91796875 C-80.71572375 1.27657319 -78.51673645 0.7337 -74.4453125 2.29296875 C-72.31948303 3.64988118 -70.25977343 5.09000932 -68.1875 6.52734375 C-58.78488891 12.58144662 -49.8503881 16.89209311 -38.4453125 15.29296875 C-37.40890625 15.15632813 -36.3725 15.0196875 -35.3046875 14.87890625 C-24.93781881 13.00085033 -15.68006179 7.99061838 -7.6953125 1.16796875 C-4.10388088 -0.90401103 -3.77752599 -0.88027968 0 0 Z " fill="#FEFEFE" transform="translate(150.4453125,15.70703125)"/>
<path d="M0 0 C0 0.99 0 1.98 0 3 C-11.15082605 12.08252767 -22.29805351 13.79553724 -36.4375 12.53515625 C-43.02334956 11.54583455 -48.70445057 9.94414558 -53.125 4.75 C-53.74375 3.8425 -54.3625 2.935 -55 2 C-54.01 1.67 -53.02 1.34 -52 1 C-50.34683839 2.21456771 -48.69448366 3.43025385 -47.046875 4.65234375 C-38.70193743 10.14662517 -26.64435393 10.72883678 -17 9 C-11.38957303 7.14261128 -4.23047244 4.23047244 0 0 Z " fill="#FDFDFD" transform="translate(137,14)"/>
<path d="M0 0 C-0.97624856 2.49021692 -1.64288957 3.77182599 -3.92578125 5.23046875 C-10.91424457 8.03271673 -17.50074829 8.76491374 -25 9 C-25 8.34 -25 7.68 -25 7 C-17.04679172 2.38995449 -9.24903184 0 0 0 Z " fill="#FBFBFB" transform="translate(210,87)"/>
<path d="M0 0 C9.27043825 1.66561065 17.08943308 4.44382113 24 11 C24 11.33 24 11.66 24 12 C15.76535713 12.89506988 9.51494433 8.82873744 2.875 4.3125 C1.92625 3.549375 0.9775 2.78625 0 2 C0 1.34 0 0.68 0 0 Z " fill="#FBFBFB" transform="translate(14,88)"/>
<path d="M0 0 C0.99 0.33 1.98 0.66 3 1 C1.41925436 1.81752303 -0.16471223 2.62881997 -1.75 3.4375 C-2.63171875 3.88996094 -3.5134375 4.34242187 -4.421875 4.80859375 C-12.34346698 8.46932944 -20.86592746 7.53356358 -29 5 C-31.37708316 4.07180562 -33.67831555 3.06410537 -36 2 C-36 1.67 -36 1.34 -36 1 C-32.35497621 0.8130757 -29.20449473 1.1238364 -25.6875 2 C-17.47409073 3.92287174 -7.69433836 3.84716918 0 0 Z " fill="#FDFDFD" transform="translate(126,14)"/>
<path d="M0 0 C0 0.66 0 1.32 0 2 C-1.59714844 2.20302734 -1.59714844 2.20302734 -3.2265625 2.41015625 C-12.58741105 3.74834909 -20.06035022 5.98294966 -28.33984375 10.57421875 C-31 12 -31 12 -33 12 C-33 11.34 -33 10.68 -33 10 C-22.74020669 3.75490842 -12.16730888 0 0 0 Z " fill="#FCFCFC" transform="translate(211,82)"/>
<path d="M0 0 C6.39782186 0.11424682 11.39939296 1.76889827 17.1875 4.3125 C18.20263672 4.75638062 18.20263672 4.75638062 19.23828125 5.20922852 C23.4587685 7.12448149 27.21133101 9.3308444 31 12 C30.67 12.66 30.34 13.32 30 14 C29.2575 13.443125 28.515 12.88625 27.75 12.3125 C20.32681509 7.38699848 11.68847669 4.6827206 3.08203125 2.67578125 C2.39496094 2.45277344 1.70789062 2.22976562 1 2 C0.67 1.34 0.34 0.68 0 0 Z " fill="#FCFCFC" transform="translate(10,82)"/>
<path d="" fill="#F1F1F1" transform="translate(0,0)"/>
</svg>
