<?xml version="1.0" encoding="UTF-8"?>
<svg version="1.1" xmlns="http://www.w3.org/2000/svg" width="232" height="232">
<path d="M0 0 C3.40266083 0.7288676 6.75883482 1.57008216 10.12695312 2.44140625 C10.85720703 2.62316406 11.58746094 2.80492187 12.33984375 2.9921875 C13.09201172 3.17958496 13.84417969 3.36698242 14.61914062 3.56005859 C17.18841354 4.03481555 19.6055542 4.05331478 22.21484375 4.09375 C25.17055722 4.35842369 26.52727536 4.54916897 28.69213867 6.61376953 C30.20641005 8.88373394 31.42844027 11.17281732 32.625 13.625 C33.08173096 14.48585205 33.53846191 15.3467041 34.0090332 16.23364258 C34.93410442 17.9847455 35.84388927 19.74401391 36.73779297 21.51123047 C37.85236387 23.70889696 39.0047052 25.87587511 40.19140625 28.03515625 C41.84316479 31.0443398 43.44404556 34.07603853 45.02197266 37.12451172 C46.06490709 39.12446737 47.13209379 41.11051546 48.19921875 43.09765625 C55.59781355 57.07277976 57.5394088 70.21070214 55.50927734 86.03662109 C54.88942402 91.49051113 54.7732165 96.92155374 54.68359375 102.40625 C54.66276733 103.50505493 54.64194092 104.60385986 54.6204834 105.73596191 C54.55453546 109.32390637 54.49556523 112.9119199 54.4375 116.5 C54.41632111 117.72444824 54.39514221 118.94889648 54.37332153 120.21044922 C53.93940474 145.47414046 53.88891187 170.73343182 54 196 C50.48899794 197.55084777 47.42729128 198.33708733 43.61328125 198.7109375 C42.59169922 198.82179687 41.57011719 198.93265625 40.51757812 199.046875 C38.40097175 199.26356596 36.2837793 199.47461541 34.16601562 199.6796875 C27.99547463 200.36057478 22.80046425 201.55947221 17.13916016 204.1394043 C7.82983813 207.88459491 -3.6135118 202.25430807 -12.34375 198.98046875 C-15.64033764 197.76364008 -18.97248592 196.67958189 -22.3203125 195.61328125 C-24 195 -24 195 -25 194 C-25.74387263 184.22951913 -24.24654943 175.45742515 -22 166 C-20.13676335 157.06775644 -18.08082358 146.80198894 -21.01171875 137.94140625 C-22.72655365 132.38310776 -22.16620014 126.50064421 -22.0625 120.75 C-21.50440196 106.69963949 -21.50440196 106.69963949 -24 93 C-24.03954234 90.66700175 -24.04401732 88.33291811 -24 86 C-22.87464844 86.144375 -21.74929687 86.28875 -20.58984375 86.4375 C-5.00117409 88.35918019 8.85604709 89.0479843 24 84 C23.95557584 78.20111491 23.88546048 72.40329067 23.79248047 66.60498047 C23.76441661 64.63631679 23.74313021 62.66754349 23.72900391 60.69873047 C23.70737095 57.85327617 23.6606193 55.00911987 23.609375 52.1640625 C23.60814636 51.29697662 23.60691772 50.42989075 23.60565186 49.53652954 C23.36894497 39.45158313 19.52137324 30.32042332 12.1875 23.3125 C7.0987902 19.62069093 2.2261033 17.75928089 -4 17 C-4.37484035 11.12750125 -3.25153948 6.43635958 -1 1 C-0.67 0.67 -0.34 0.34 0 0 Z " fill="#FEFEFE" transform="translate(100,19)"/>
<path d="M0 0 C5.74094501 4.72033256 8.98660167 9.99135505 9.828125 17.328125 C9.98614705 19.30076686 10.12639548 21.27490283 10.25 23.25 C10.32734375 24.22324219 10.4046875 25.19648437 10.484375 26.19921875 C10.97572438 32.80611314 11.08761532 39.3769309 11 46 C10.36199463 45.98428955 9.72398926 45.9685791 9.06665039 45.95239258 C-4.32512987 45.66740991 -16.91654557 46.01355931 -30 49 C-32.84240455 40.09379907 -33.19860175 31.3030831 -33.25 22 C-33.270625 21.06671875 -33.29125 20.1334375 -33.3125 19.171875 C-33.34869914 12.69222915 -32.99175716 5.62811155 -28.68920898 0.41040039 C-19.89953432 -7.47901496 -9.48449858 -5.49102549 0 0 Z " fill="#FEFEFE" transform="translate(108,45)"/>
<path d="M0 0 C2.64 1.32 5.28 2.64 8 4 C7.01809582 7.92761672 5.98358556 11.83919252 4.9375 15.75 C4.75123047 16.44738281 4.56496094 17.14476563 4.37304688 17.86328125 C3.91564761 19.57559646 3.45786215 21.2878085 3 23 C2.43152344 23.09796875 1.86304687 23.1959375 1.27734375 23.296875 C-4.22914031 24.36323919 -8.2731199 25.98284249 -13 29 C-12.50137291 23.21290382 -10.82031505 18.98547191 -8.125 13.875 C-7.77308594 13.18535156 -7.42117187 12.49570312 -7.05859375 11.78515625 C-2.05290354 2.05290354 -2.05290354 2.05290354 0 0 Z " fill="#FCFCFC" transform="translate(88,13)"/>
<path d="M0 0 C0.99845947 -0.00515625 1.99691895 -0.0103125 3.02563477 -0.015625 C8.10853553 0.03223417 12.37127096 0.29015087 17.125 2.3125 C16.795 2.9725 16.465 3.6325 16.125 4.3125 C15.19880859 4.20421875 15.19880859 4.20421875 14.25390625 4.09375 C4.62876074 3.03893953 -3.86006421 3.3100615 -13.4453125 4.875 C-16.95978515 5.32331542 -20.33608931 5.38453889 -23.875 5.3125 C-23.875 4.6525 -23.875 3.9925 -23.875 3.3125 C-15.92587559 0.44055828 -8.38149462 0.01056852 0 0 Z " fill="#FBFBFB" transform="translate(102.875,93.6875)"/>
<path d="M0 0 C4.116285 1.34843819 8.20980645 2.69870318 12.2578125 4.2421875 C20.14048046 7.22243556 27.62324447 9.06770329 36 10 C34 12 34 12 30.625 12.3125 C20.07411226 12.02527075 8.6205931 8.11784027 0 2 C0 1.34 0 0.68 0 0 Z " fill="#EEEEEE" transform="translate(90,8)"/>
<path d="M0 0 C1.26650391 0.00966797 1.26650391 0.00966797 2.55859375 0.01953125 C3.43128906 0.03628906 4.30398437 0.05304688 5.203125 0.0703125 C6.53537109 0.08384766 6.53537109 0.08384766 7.89453125 0.09765625 C10.08100558 0.12116673 12.26692594 0.15402751 14.453125 0.1953125 C14.453125 0.8553125 14.453125 1.5153125 14.453125 2.1953125 C6.863125 2.1953125 -0.726875 2.1953125 -8.546875 2.1953125 C-4.86109923 0.35242462 -3.82564847 -0.05169795 0 0 Z " fill="#FBFBFB" transform="translate(99.546875,99.8046875)"/>
</svg>
