<?xml version="1.0" encoding="UTF-8"?>
<svg version="1.1" xmlns="http://www.w3.org/2000/svg" width="232" height="232">
<path d="M0 0 C3.32106891 4.75184389 3.47105663 10.17005008 3.2421875 15.77734375 C1.9428125 15.98359375 0.6434375 16.18984375 -0.6953125 16.40234375 C-7.34373027 17.86226487 -13.24192943 21.68250131 -17.7578125 26.77734375 C-18.88828156 28.60434082 -18.88828156 28.60434082 -19.8203125 30.58984375 C-20.30177734 31.55857422 -20.30177734 31.55857422 -20.79296875 32.546875 C-23.45711092 38.7056814 -24.08556233 43.91749845 -24.171875 50.55078125 C-24.19124115 51.47452545 -24.2106073 52.39826965 -24.2305603 53.3500061 C-24.29006955 56.28402639 -24.33662645 59.21808651 -24.3828125 62.15234375 C-24.42101867 64.14845407 -24.46007192 66.14454838 -24.5 68.140625 C-24.59574746 73.01940026 -24.67988389 77.89825266 -24.7578125 82.77734375 C-23.92636719 82.98230469 -23.09492187 83.18726562 -22.23828125 83.3984375 C-21.15160156 83.66785156 -20.06492188 83.93726562 -18.9453125 84.21484375 C-17.86636719 84.48167969 -16.78742188 84.74851562 -15.67578125 85.0234375 C-13.6837282 85.53811787 -11.70969726 86.1267155 -9.7578125 86.77734375 C1.35021858 87.41166691 12.24104447 86.18871605 23.2421875 84.77734375 C23.3671875 91.40234375 23.3671875 91.40234375 22.2421875 94.77734375 C20.89047529 104.17821735 21.19842658 113.63469258 21.36914062 123.1015625 C21.42696475 129.1492859 21.15454687 134.05497609 19.2421875 139.77734375 C18.0505005 151.38468462 20.52981096 163.26172361 23.4296875 174.46484375 C24.76891545 180.34128361 25.33154381 186.85063598 24.2421875 192.77734375 C20.92133201 195.55787723 17.11156386 196.58332162 12.9921875 197.77734375 C9.0484931 198.94171506 5.13066277 200.12736484 1.2421875 201.46484375 C-6.2042785 203.9515039 -12.93906901 205.2273808 -20.2578125 201.859375 C-26.10763799 199.43428401 -31.80506011 198.75903486 -38.0703125 198.15234375 C-40.17122427 197.93725955 -42.27152697 197.71612067 -44.37109375 197.48828125 C-45.74454956 197.35365479 -45.74454956 197.35365479 -47.14575195 197.21630859 C-49.90260381 196.75301112 -52.20697574 195.90407607 -54.7578125 194.77734375 C-54.75257568 193.58625 -54.74733887 192.39515625 -54.74194336 191.16796875 C-54.64158621 165.86653294 -54.75773807 140.57551261 -55.1953125 115.27734375 C-55.21496063 114.06320801 -55.23460876 112.84907227 -55.25485229 111.59814453 C-55.31212187 108.12651859 -55.37560899 104.65506745 -55.44140625 101.18359375 C-55.45812378 100.16052124 -55.47484131 99.13744873 -55.49206543 98.08337402 C-55.59888845 92.91896646 -55.87706526 87.85018008 -56.53034973 82.72465515 C-58.55848895 65.3617318 -54.65642462 51.18286598 -46.13916016 36.22705078 C-44.61852965 33.53033702 -43.14413873 30.81145348 -41.67578125 28.0859375 C-36.05268452 17.66238387 -36.05268452 17.66238387 -34.12475586 14.22094727 C-33.23204751 12.62510554 -32.36186338 11.01639487 -31.51782227 9.39428711 C-28.5727985 4.06732004 -28.5727985 4.06732004 -24.62890625 2.6640625 C-23.49582031 2.59832031 -22.36273438 2.53257813 -21.1953125 2.46484375 C-15.21190369 1.96097774 -9.9125658 0.84559613 -4.18359375 -0.9296875 C-1.7578125 -1.22265625 -1.7578125 -1.22265625 0 0 Z " fill="#FEFEFE" transform="translate(131.7578125,20.22265625)"/>
<path d="M0 0 C5.6904333 5.6904333 6.24431186 12.16349715 6.27758789 19.83056641 C6.26848389 20.77335449 6.25937988 21.71614258 6.25 22.6875 C6.24540771 23.66122559 6.24081543 24.63495117 6.23608398 25.63818359 C6.13052325 34.02292154 5.07589093 41.88345347 3 50 C2.05125 49.7834375 1.1025 49.566875 0.125 49.34375 C-12.59648206 46.6678027 -25.04336199 46.68095158 -38 47 C-38.36855091 13.45777212 -38.36855091 13.45777212 -31.83984375 4.7421875 C-28.58225497 1.65750683 -25.1199811 -0.28334121 -21 -2 C-20.01 -2.45375 -19.02 -2.9075 -18 -3.375 C-11.59146917 -4.71011059 -5.50018098 -3.5815132 0 0 Z " fill="#FEFEFE" transform="translate(150,44)"/>
<path d="M0 0 C4.16721802 2.46369593 5.690844 5.91032639 7.5625 10.1875 C7.86478516 10.86006836 8.16707031 11.53263672 8.47851562 12.22558594 C9.3335977 14.14441978 10.17058198 16.06995744 11 18 C11.38027344 18.87785156 11.76054687 19.75570312 12.15234375 20.66015625 C14.14354975 25.56935076 14.14354975 25.56935076 13 29 C12.50371094 28.65066406 12.00742188 28.30132812 11.49609375 27.94140625 C10.81675781 27.48636719 10.13742188 27.03132813 9.4375 26.5625 C8.77621094 26.11003906 8.11492187 25.65757813 7.43359375 25.19140625 C4.32977146 23.67187848 1.41608732 23.36024194 -2 23 C-2.64622041 20.58343624 -3.29199004 18.16675354 -3.9375 15.75 C-4.11990234 15.06808594 -4.30230469 14.38617188 -4.49023438 13.68359375 C-5.35053121 10.46139106 -6.20683134 7.23946777 -7 4 C-4.69 2.68 -2.38 1.36 0 0 Z " fill="#FCFCFC" transform="translate(142,13)"/>
<path d="M0 0 C1.53346069 0.00193359 1.53346069 0.00193359 3.09790039 0.00390625 C10.4190527 0.09705809 16.94438344 0.80853531 23.875 3.3125 C23.875 3.9725 23.875 4.6325 23.875 5.3125 C19.11824011 5.40932972 14.6922713 5.07858511 10 4.3125 C0.70028925 2.92785458 -7.79710381 3.33612208 -17.125 4.3125 C-17.125 3.6525 -17.125 2.9925 -17.125 2.3125 C-11.44690547 -0.10309615 -6.06247458 -0.03130787 0 0 Z " fill="#FBFBFB" transform="translate(128.125,93.6875)"/>
<path d="M0 0 C0 0.99 0 1.98 0 3 C-10.45206656 8.62632519 -21.0005982 12.59013451 -33 12 C-33.66 11.34 -34.32 10.68 -35 10 C-33.99582031 9.84144531 -32.99164063 9.68289062 -31.95703125 9.51953125 C-23.86446243 8.16612916 -16.48316831 6.35856757 -8.8671875 3.18359375 C-5.94844623 1.97871827 -3.00481296 0.96742494 0 0 Z " fill="#EEEEEE" transform="translate(140,8)"/>
<path d="M0 0 C3.08325358 -0.0582253 6.16636505 -0.09367134 9.25 -0.125 C10.55904297 -0.15013672 10.55904297 -0.15013672 11.89453125 -0.17578125 C12.73886719 -0.18222656 13.58320313 -0.18867187 14.453125 -0.1953125 C15.22817383 -0.20578613 16.00322266 -0.21625977 16.80175781 -0.22705078 C19 0 19 0 23 2 C15.41 2 7.82 2 0 2 C0 1.34 0 0.68 0 0 Z " fill="#FBFBFB" transform="translate(117,100)"/>
</svg>
